# xmcd
#
# Track frame offsets:
#	150
#	19338
#	34711
#	47610
#	58828
#	69801
#	90462
#	111719
#	129140
#	147777
#	170023
#	187773
#	203235
#	220150
#	242494
#	262738
#	284375
#
# Disc length: 3991 seconds
#
# Revision: 0
# Processed by: cddbd v1.5.1PL0 Copyright (c) Steve Scherf et al.
# Submitted via: dBpowerAMP V4.0
#
DISCID=ec0f9511
DTITLE=Various Artist - Ultimate Divas The Greates Female Vocalists of our Time
DYEAR=1900
DGENRE=Blues
TTITLE0=My man with Billie Holiday
TTITLE1=Stormy weather with Lena Horne
TTITLE2=Over the rainbow with Judy Garland
TTITLE3=What a difference a day makes with Dinah Washington
TTITLE4=Broken Hearted Melody with Sarah Vaughn
TTITLE5=Someone to watch over me with Ella Fitsgerald
TTITLE6=Midnight train to Georgia with Gladys Knight
TTITLE7=What 's love got to do with it with Tina Turner
TTITLE8=My funny Valentine with Chaka Kan
TTITLE9=Why with Annie Lennox
TTITLE10=Touch me in the morning with Diana Ross
TTITLE11=I'll never love this way again with Dionne Warwick
TTITLE12=If only you knew with Patti Labelle
TTITLE13=Not goona cry with Mary J. Blige
TTITLE14=Unbreak my heart with Toni Brazton
TTITLE15=I have nothing with Whithey Houston
TTITLE16=Nesum dorma with Aretha Franklin
EXTD=
EXTT0=
EXTT1=
EXTT2=
EXTT3=
EXTT4=
EXTT5=
EXTT6=
EXTT7=
EXTT8=
EXTT9=
EXTT10=
EXTT11=
EXTT12=
EXTT13=
EXTT14=
EXTT15=
EXTT16=
PLAYORDER=
